<svg xmlns="http://www.w3.org/2000/svg" viewBox="0 0 141.45 363.89"><defs><style>.cls-1{fill:#5c4a3f;}.cls-2{fill:#c85151;}.cls-3{fill:#db6565;}.cls-4{fill:#756255;}.cls-5{fill:#f2d982;}</style></defs><title>Asset 15</title><g id="Layer_2" data-name="Layer 2"><g id="Layer_1-2" data-name="Layer 1"><rect class="cls-1" x="75.56" y="42.85" width="7.04" height="326.85" transform="translate(62.25 -14) rotate(16.61)"/><rect class="cls-2" x="-5.22" y="98.04" width="168.12" height="53.95" transform="matrix(0.29, -0.96, 0.96, 0.29, -63.49, 164.83)"/><path class="cls-3" d="M116.12,0,64.27,33a122.64,122.64,0,0,0,36.66,18,122.8,122.8,0,0,0,40.52,5Z"/><path class="cls-3" d="M127.09,57.61l-7.15,24A340.25,340.25,0,0,1,60.51,92.07l7.15-24A340.25,340.25,0,0,0,127.09,57.61Z"/><path class="cls-3" d="M111.13,111.11l-7.15,24a342.17,342.17,0,0,1-59.42,10.46l7.15-24A340.11,340.11,0,0,0,111.13,111.11Z"/><path class="cls-3" d="M95.19,164.58l-7.15,24A343.46,343.46,0,0,1,32,198.75l-3-.9,6.8-22.79A340.42,340.42,0,0,0,95.19,164.58Z"/><path class="cls-4" d="M56.39,206s-3.91,16.76-11.18,29-28.06,19-28.06,19l-1.81-3.33S33.84,245,41,233.06s11-28.34,11-28.34Z"/><path class="cls-5" d="M28.64,238.49s-4.61,7.47-5.26,11,10.44,7.09,10.44,7.09-10.47-1.28-12.77.38-.11,13.89-.11,13.89-4.05-9.57-6.18-10.92-12.31,5.54-12.31,5.54S10.1,258,10.28,255,0,246.11,0,246.11s8.88,2.92,12,2.5,1.27-13.35,1.27-13.35,2.54,9.2,4.79,10.28S28.64,238.49,28.64,238.49Z"/></g></g></svg>